<mxfile host="65bd71144e">
    <diagram id="DJYPZipczvuoGlcLDi-M" name="Page-2">
        <mxGraphModel dx="887" dy="336" grid="1" gridSize="10" guides="1" tooltips="1" connect="1" arrows="1" fold="1" page="1" pageScale="1" pageWidth="850" pageHeight="1100" math="0" shadow="0">
            <root>
                <mxCell id="0"/>
                <mxCell id="1" parent="0"/>
                <mxCell id="S4bd6C2nDkduxDMEbOqK-1" value="FlowChart BlackJack" style="swimlane;startSize=20;horizontal=1;childLayout=flowLayout;flowOrientation=north;resizable=0;interRankCellSpacing=50;containerType=tree;fontSize=12;sketch=1;hachureGap=4;jiggle=2;curveFitting=1;fontFamily=Architects Daughter;fontSource=https%3A%2F%2Ffonts.googleapis.com%2Fcss%3Ffamily%3DArchitects%2BDaughter;" vertex="1" parent="1">
                    <mxGeometry x="320" y="40" width="270" height="280" as="geometry"/>
                </mxCell>
                <mxCell id="S4bd6C2nDkduxDMEbOqK-2" value="Start" style="whiteSpace=wrap;html=1;sketch=1;hachureGap=4;jiggle=2;curveFitting=1;fontFamily=Architects Daughter;fontSource=https%3A%2F%2Ffonts.googleapis.com%2Fcss%3Ffamily%3DArchitects%2BDaughter;fontSize=20;" vertex="1" parent="S4bd6C2nDkduxDMEbOqK-1">
                    <mxGeometry x="85" y="40" width="100" height="40" as="geometry"/>
                </mxCell>
                <mxCell id="S4bd6C2nDkduxDMEbOqK-3" value="Task" style="whiteSpace=wrap;html=1;sketch=1;hachureGap=4;jiggle=2;curveFitting=1;fontFamily=Architects Daughter;fontSource=https%3A%2F%2Ffonts.googleapis.com%2Fcss%3Ffamily%3DArchitects%2BDaughter;fontSize=20;" vertex="1" parent="S4bd6C2nDkduxDMEbOqK-1">
                    <mxGeometry x="20" y="130" width="100" height="40" as="geometry"/>
                </mxCell>
                <mxCell id="S4bd6C2nDkduxDMEbOqK-4" value="" style="html=1;rounded=1;curved=0;sourcePerimeterSpacing=0;targetPerimeterSpacing=0;startSize=6;endSize=6;sketch=1;hachureGap=4;jiggle=2;curveFitting=1;fontFamily=Architects Daughter;fontSource=https%3A%2F%2Ffonts.googleapis.com%2Fcss%3Ffamily%3DArchitects%2BDaughter;fontSize=16;noEdgeStyle=1;orthogonal=1;" edge="1" parent="S4bd6C2nDkduxDMEbOqK-1" source="S4bd6C2nDkduxDMEbOqK-2" target="S4bd6C2nDkduxDMEbOqK-3">
                    <mxGeometry relative="1" as="geometry">
                        <Array as="points">
                            <mxPoint x="112.5" y="92"/>
                            <mxPoint x="70" y="118"/>
                        </Array>
                    </mxGeometry>
                </mxCell>
                <mxCell id="S4bd6C2nDkduxDMEbOqK-5" value="Task" style="whiteSpace=wrap;html=1;sketch=1;hachureGap=4;jiggle=2;curveFitting=1;fontFamily=Architects Daughter;fontSource=https%3A%2F%2Ffonts.googleapis.com%2Fcss%3Ffamily%3DArchitects%2BDaughter;fontSize=20;" vertex="1" parent="S4bd6C2nDkduxDMEbOqK-1">
                    <mxGeometry x="150" y="130" width="100" height="40" as="geometry"/>
                </mxCell>
                <mxCell id="S4bd6C2nDkduxDMEbOqK-6" value="" style="html=1;rounded=1;curved=0;sourcePerimeterSpacing=0;targetPerimeterSpacing=0;startSize=6;endSize=6;sketch=1;hachureGap=4;jiggle=2;curveFitting=1;fontFamily=Architects Daughter;fontSource=https%3A%2F%2Ffonts.googleapis.com%2Fcss%3Ffamily%3DArchitects%2BDaughter;fontSize=16;noEdgeStyle=1;orthogonal=1;" edge="1" parent="S4bd6C2nDkduxDMEbOqK-1" source="S4bd6C2nDkduxDMEbOqK-2" target="S4bd6C2nDkduxDMEbOqK-5">
                    <mxGeometry relative="1" as="geometry">
                        <Array as="points">
                            <mxPoint x="157.5" y="92"/>
                            <mxPoint x="200" y="118"/>
                        </Array>
                    </mxGeometry>
                </mxCell>
                <mxCell id="S4bd6C2nDkduxDMEbOqK-7" value="End" style="whiteSpace=wrap;html=1;sketch=1;hachureGap=4;jiggle=2;curveFitting=1;fontFamily=Architects Daughter;fontSource=https%3A%2F%2Ffonts.googleapis.com%2Fcss%3Ffamily%3DArchitects%2BDaughter;fontSize=20;" vertex="1" parent="S4bd6C2nDkduxDMEbOqK-1">
                    <mxGeometry x="85" y="220" width="100" height="40" as="geometry"/>
                </mxCell>
                <mxCell id="S4bd6C2nDkduxDMEbOqK-8" value="" style="html=1;rounded=1;curved=0;sourcePerimeterSpacing=0;targetPerimeterSpacing=0;startSize=6;endSize=6;sketch=1;hachureGap=4;jiggle=2;curveFitting=1;fontFamily=Architects Daughter;fontSource=https%3A%2F%2Ffonts.googleapis.com%2Fcss%3Ffamily%3DArchitects%2BDaughter;fontSize=16;noEdgeStyle=1;orthogonal=1;" edge="1" parent="S4bd6C2nDkduxDMEbOqK-1" source="S4bd6C2nDkduxDMEbOqK-3" target="S4bd6C2nDkduxDMEbOqK-7">
                    <mxGeometry relative="1" as="geometry">
                        <Array as="points">
                            <mxPoint x="70" y="182"/>
                            <mxPoint x="112.5" y="208"/>
                        </Array>
                    </mxGeometry>
                </mxCell>
                <mxCell id="S4bd6C2nDkduxDMEbOqK-9" value="" style="html=1;rounded=1;curved=0;sourcePerimeterSpacing=0;targetPerimeterSpacing=0;startSize=6;endSize=6;sketch=1;hachureGap=4;jiggle=2;curveFitting=1;fontFamily=Architects Daughter;fontSource=https%3A%2F%2Ffonts.googleapis.com%2Fcss%3Ffamily%3DArchitects%2BDaughter;fontSize=16;noEdgeStyle=1;orthogonal=1;" edge="1" parent="S4bd6C2nDkduxDMEbOqK-1" source="S4bd6C2nDkduxDMEbOqK-5" target="S4bd6C2nDkduxDMEbOqK-7">
                    <mxGeometry relative="1" as="geometry">
                        <Array as="points">
                            <mxPoint x="200" y="182"/>
                            <mxPoint x="157.5" y="208"/>
                        </Array>
                    </mxGeometry>
                </mxCell>
                <mxCell id="S4bd6C2nDkduxDMEbOqK-10" value="em desenvolvimento" style="shape=delay;whiteSpace=wrap;html=1;sketch=1;hachureGap=4;jiggle=2;curveFitting=1;fontFamily=Architects Daughter;fontSource=https%3A%2F%2Ffonts.googleapis.com%2Fcss%3Ffamily%3DArchitects%2BDaughter;fontSize=20;" vertex="1" parent="1">
                    <mxGeometry x="60" y="130" width="140" height="60" as="geometry"/>
                </mxCell>
            </root>
        </mxGraphModel>
    </diagram>
</mxfile>